<?xml version="1.0" standalone="no"?>
<!DOCTYPE svg PUBLIC "-//W3C//DTD SVG 1.1//EN" "http://www.w3.org/Graphics/SVG/1.1/DTD/svg11.dtd" >
<svg xmlns="http://www.w3.org/2000/svg">
<metadata>Generated by IcoMoon</metadata>
<defs>
<font id="icomoon" horiz-adv-x="1024">
<font-face units-per-em="1024" ascent="960" descent="-64" />
<missing-glyph horiz-adv-x="1024" />
<glyph unicode="&#x20;" horiz-adv-x="512" d="" />
<glyph unicode="&#xe900;" glyph-name="yourVideos" d="M879.604 80.396v771.013h-771.013v-771.013h771.013zM108.591 959.832h771.013c14.734 0.82 29.485-1.378 43.345-6.458 13.854-5.080 26.528-12.937 37.243-23.088s19.245-22.383 25.070-35.946c5.819-13.563 8.812-28.172 8.788-42.932v-771.013c0.873-15.258-1.488-30.527-6.933-44.809-5.439-14.282-13.842-27.25-24.648-38.057s-23.775-19.209-38.057-24.648c-14.282-5.445-29.551-7.806-44.809-6.933h-771.013c-14.759-0.024-29.368 2.97-42.932 8.788-13.563 5.825-25.795 14.354-35.946 25.070s-18.007 23.389-23.088 37.243c-5.080 13.86-7.278 28.612-6.458 43.345v771.013c0 28.756 11.423 56.333 31.757 76.667s47.911 31.757 76.667 31.757zM385.676 255.078v385.508l301.175-192.753-301.175-192.755z" />
<glyph unicode="&#xe901;" glyph-name="library" d="M102.4 755.2h-102.4v-716.8c0-56.32 46.080-102.4 102.4-102.4h716.8v102.4h-716.8v716.8zM921.6 960h-614.4c-56.32 0-102.4-46.080-102.4-102.4v-614.4c0-56.32 46.080-102.4 102.4-102.4h614.4c56.32 0 102.4 46.080 102.4 102.4v614.4c0 56.32-46.080 102.4-102.4 102.4zM512 320v460.8l307.2-230.4-307.2-230.4z" />
<glyph unicode="&#xe902;" glyph-name="history" d="M562.176 883.2c-232.96 0-421.376-189.44-421.376-422.4h-140.8l182.784-182.784 2.048-6.656 189.44 189.44h-139.776c0 181.248 146.944 328.704 328.704 328.704 181.248 0 327.68-147.456 327.68-328.704s-146.432-328.704-327.68-328.704c-91.136 0-173.056 37.376-232.448 97.28l-66.56-66.56c76.8-76.8 181.76-124.416 298.496-124.416 234.496 0 423.936 189.44 423.936 422.4 0 233.472-189.44 422.4-422.912 422.4h-1.536zM516.096 648.704v-235.52l200.704-117.76 33.792 56.32-163.84 97.28v199.68h-70.656z" />
<glyph unicode="&#xe903;" glyph-name="later" d="M501.76 960c-275.878 0-501.76-225.882-501.76-501.76s225.882-501.76 501.76-501.76c275.878 0 501.76 225.882 501.76 501.76s-225.882 501.76-501.76 501.76zM712.584 247.416l-260.819 160.828v301.176h75.294v-261.421l225.882-135.529-40.358-65.054z" />
<glyph unicode="&#xe904;" glyph-name="liked" d="M0-3.765h180.706v542.118h-180.706v-542.118zM993.882 493.176c0 49.995-40.96 90.353-90.353 90.353h-284.913l42.165 206.607 1.807 14.456c0 18.071-7.831 36.141-19.878 48.188l-48.188 46.984-296.358-298.165c-18.071-15.661-27.106-38.551-27.106-63.247v-451.765c0-49.393 40.358-90.353 90.353-90.353h406.588c37.346 0 69.271 22.889 83.125 54.212l136.734 319.247c3.614 10.842 6.024 21.685 6.024 33.129v90.353z" />
<glyph unicode="&#xe905;" glyph-name="arrow" d="M903.68 789.333l-391.68-390.827-391.68 390.827-120.32-120.32 512-512 512 512-120.32 120.32z" />
<glyph unicode="&#xe906;" glyph-name="dropDown" d="M0 106.667h1024v113.778h-1024v-113.778zM0 391.111h1024v113.778h-1024v-113.778zM0 789.333v-113.778h1024v113.778h-1024z" />
<glyph unicode="&#xe907;" glyph-name="home" d="M409.6 12.8v307.2h204.8v-307.2h256v409.6h153.6l-512 460.8-512-460.8h153.6v-409.6z" />
<glyph unicode="&#xe908;" glyph-name="trending" d="M820.395 493.511c-13.084 17.067-28.444 31.858-43.236 46.649-36.978 34.133-79.644 58.596-115.487 94.436-83.058 83.058-101.262 220.16-48.356 325.404-51.2-13.084-99.556-42.667-139.378-75.093-144.498-118.329-201.387-327.111-133.12-506.311 2.276-5.689 4.551-11.378 4.551-18.773 0-12.516-8.533-23.893-19.911-28.444-12.516-5.689-26.169-2.276-36.409 6.827-3.413 2.844-5.689 5.689-8.533 9.671-62.578 81.351-72.818 197.973-30.151 291.271-93.298-77.369-142.791-208.213-135.965-331.662 2.276-28.444 5.689-56.889 15.36-85.333 7.964-34.133 22.756-68.267 40.96-98.418 59.164-98.418 163.271-168.96 275.342-183.182 119.467-15.36 247.469 6.827 339.060 91.022 102.4 94.436 139.378 244.622 85.333 375.467l-7.396 14.791c-11.378 25.6-26.738 49.493-44.373 71.111l1.707 0.569zM644.037 135.111c-15.929-13.653-41.529-28.444-61.44-34.133-62.578-21.618-125.156 9.102-163.84 46.649 68.267 15.929 108.089 65.991 119.467 116.622 9.671 45.511-7.964 83.058-15.36 126.862-6.827 42.098-5.689 77.938 11.378 117.191 8.533-21.618 19.911-43.236 32.996-60.302 43.236-56.889 110.933-81.92 125.158-159.289 2.276-7.964 3.413-15.929 3.413-24.462 1.707-46.649-18.207-97.849-52.34-128.569l0.569-0.569z" />
<glyph unicode="&#xe909;" glyph-name="subscription" d="M903.529 658.824h-807.153v102.4h807.153v-102.4zM801.129 960h-602.353v-96.376h602.353v96.376zM999.906 460.047v-403.576c0-60.235-42.165-96.376-96.376-96.376h-807.153c-60.235 0-96.376 42.165-96.376 96.376v403.576c0 60.235 42.165 102.4 96.376 102.4h807.153c60.235 0 96.376-48.188 96.376-102.4zM698.729 261.271l-301.176 162.635v-325.271l301.176 162.635z" />
<glyph unicode="&#xe90a;" glyph-name="create" horiz-adv-x="1536" d="M1194.667 576v298.667c0 46.933-38.4 85.333-85.333 85.333h-1024c-46.933 0-85.333-38.4-85.333-85.333v-853.333c0-46.933 38.4-85.333 85.333-85.333h1024c46.933 0 85.333 38.4 85.333 85.333v298.667l341.333-341.333v938.667l-341.333-341.333zM938.667 362.667h-256v-256h-170.667v256h-256v170.667h256v256h170.667v-256h256v-170.667z" />
<glyph unicode="&#xe90b;" glyph-name="menu" d="M0 704h256v256h-256v-256zM384-64h256v256h-256v-256zM0-64h256v256h-256v-256zM0 320h256v256h-256v-256zM384 320h256v256h-256v-256zM768 960v-256h256v256h-256zM384 704h256v256h-256v-256zM768 320h256v256h-256v-256zM768-64h256v256h-256v-256z" />
<glyph unicode="&#xe90c;" glyph-name="notification" horiz-adv-x="819" d="M409.6-38.4c56.32 0 102.4 46.080 102.4 102.4h-204.8c0-56.32 46.080-102.4 102.4-102.4zM716.8 268.8v256c0 157.184-83.968 288.768-230.4 323.584v34.816c0 42.496-34.304 76.8-76.8 76.8s-76.8-34.304-76.8-76.8v-34.816c-146.944-34.816-230.4-165.888-230.4-323.584v-256l-102.4-102.4v-51.2h819.2v51.2l-102.4 102.4z" />
<glyph unicode="&#xe90d;" glyph-name="account" d="M1024 448c0-282.77-229.23-512-512-512s-512 229.23-512 512c0 282.77 229.23 512 512 512s512-229.23 512-512z" />
<glyph unicode="&#xe90e;" glyph-name="search" d="M731.846 315.975h-46.251l-16.395 15.808c57.375 66.744 91.918 153.395 91.918 247.657 0 210.186-170.372 380.56-380.559 380.56s-380.56-170.374-380.56-380.56c0-210.187 170.374-380.559 380.56-380.559 94.262 0 180.913 34.543 247.657 91.918l15.808-16.395v-46.251l292.737-292.154 87.238 87.238-292.154 292.737zM380.56 315.975c-145.783 0-263.464 117.681-263.464 263.465s117.681 263.464 263.464 263.464c145.784 0 263.465-117.681 263.465-263.464s-117.681-263.465-263.465-263.465z" />
<glyph unicode="&#xe90f;" glyph-name="feed" d="M921.6 960h-819.2c-56.32 0-101.888-46.080-101.888-102.4l-0.512-921.6 204.8 204.8h716.8c56.32 0 102.4 46.080 102.4 102.4v614.4c0 56.32-46.080 102.4-102.4 102.4zM563.2 345.6h-102.4v102.4h102.4v-102.4zM563.2 550.4h-102.4v204.8h102.4v-204.8z" />
<glyph unicode="&#xe910;" glyph-name="help" d="M512 960c-282.624 0-512-229.376-512-512s229.376-512 512-512c282.624 0 512 229.376 512 512s-229.376 512-512 512zM563.2 89.6h-102.4v102.4h102.4v-102.4zM669.184 486.4l-46.080-47.104c-36.864-37.376-59.904-68.096-59.904-144.896h-102.4v25.6c0 56.32 23.040 107.52 59.904 144.896l63.488 64.512c18.944 18.432 30.208 44.032 30.208 72.192 0 56.32-46.080 102.4-102.4 102.4s-102.4-46.080-102.4-102.4h-102.4c0 113.152 91.648 204.8 204.8 204.8s204.8-91.648 204.8-204.8c0-45.056-18.432-86.016-47.616-115.2z" />
<glyph unicode="&#xe911;" glyph-name="report" horiz-adv-x="904" d="M566.212 839.529l-24.094 120.471h-542.118v-1024h120.471v421.647h337.318l24.094-120.471h421.647v602.353h-337.318z" />
<glyph unicode="&#xe912;" glyph-name="settings" d="M880.865 397.824c2.048 16.384 3.584 32.768 3.584 50.176s-1.536 33.792-3.584 50.176l107.52 84.48c10.24 7.68 12.8 21.504 6.656 32.768l-102.4 177.152c-6.144 11.264-20.48 15.36-30.72 11.264l-128-51.2c-26.624 20.48-55.296 37.376-87.040 50.176l-18.944 135.68c-3.072 12.288-13.824 21.504-25.6 21.504h-204.798c-13.824 0-24.576-9.216-25.6-21.504l-20.48-135.68c-30.72-12.8-59.904-30.72-87.040-50.176l-126.976 51.2c-11.776 5.12-25.6 0-30.72-11.264l-102.4-177.152c-7.168-11.264-4.096-25.6 5.12-32.768l108.544-84.48c-2.048-16.384-3.584-33.28-3.584-50.176s1.024-33.792 3.072-50.176l-107.52-84.48c-10.24-7.68-12.8-21.504-6.656-32.768l102.4-177.152c6.144-11.264 20.48-15.36 30.72-11.264l128 51.2c26.624-20.48 55.296-37.376 87.040-50.176l18.944-135.68c2.048-12.288 12.8-21.504 25.6-21.504h204.798c12.8 0 23.552 9.216 25.6 21.504l18.944 135.68c30.72 12.8 59.904 30.72 87.040 50.176l126.976-51.2c11.776-5.12 25.6 0 30.72 11.264l102.4 177.152c6.656 11.264 4.096 25.6-5.12 32.768l-108.544 84.48h2.048zM500.451 268.8c-98.816 0-179.2 80.384-179.2 179.2s80.384 179.2 179.2 179.2c98.814 0 179.198-80.384 179.198-179.2s-80.384-179.2-179.198-179.2z" />
<glyph unicode="&#xe913;" glyph-name="live" horiz-adv-x="1408" d="M929.92 680.96l90.24 92.8c81.28-83.2 131.2-199.040 131.2-325.76s-49.92-241.92-131.2-325.76l-90.24 92.8c57.6 59.52 93.44 142.080 93.44 232.96s-35.84 172.8-93.44 232.96zM1111.040 867.2l90.24 92.8c128-131.2 206.72-312.32 206.72-512.64 0-199.68-78.72-380.8-207.36-511.36l-89.6 92.8c104.32 106.24 168.96 254.080 168.96 418.56s-65.28 312.32-168.96 419.84zM256.64 448c0 127.36 49.92 242.56 131.2 325.76l90.24-92.8c-57.6-59.52-93.44-142.080-93.44-232.96s35.84-172.8 93.44-232.96l-90.24-92.8c-81.28 83.2-131.2 198.4-131.2 325.76zM207.36 960l89.6-92.8c-104.32-106.24-168.96-254.080-168.96-418.56s65.28-312.32 168.96-419.84l-90.24-92.8c-128 131.2-206.72 312.32-206.72 512.64 0 199.68 78.72 380.8 207.36 511.36zM896 448c0-106.038-85.958-192-192-192-106.038 0-192 85.962-192 192s85.962 192 192 192c106.042 0 192-85.962 192-192z" />
<glyph unicode="&#xe914;" glyph-name="gaming" horiz-adv-x="1463" d="M1462.857 374.857v365.714l-365.714 219.429-365.714-219.429-365.714 219.429-365.714-219.429v-365.714l731.429-438.857 731.429 438.857zM512 521.143h-146.286v-146.286h-73.143v146.286h-146.286v73.143h146.286v146.286h73.143v-146.286h146.286v-73.143zM950.857 374.857c-40.229 0-73.143 32.914-73.143 73.143s32.914 73.143 73.143 73.143c40.229 0 73.143-32.914 73.143-73.143s-32.914-73.143-73.143-73.143zM1170.286 521.143c-40.229 0-73.143 32.914-73.143 73.143s32.914 73.143 73.143 73.143c40.229 0 73.143-32.914 73.143-73.143s-32.914-73.143-73.143-73.143z" />
<glyph unicode="&#xe915;" glyph-name="prem" horiz-adv-x="1365" d="M1350.315 755.162c0 0-13.653 93.525-54.613 134.485-51.2 54.614-109.227 54.614-136.533 58.027-189.781 13.653-476.501 12.288-476.501 12.288s-285.355 1.365-475.819-12.288c-27.307-3.413-84.651-3.413-136.533-58.027-40.96-40.96-54.613-134.485-54.613-134.485s-13.653-111.275-15.701-220.501v-116.053c2.048-109.227 15.701-218.456 15.701-218.456s13.653-95.573 54.613-136.533c51.883-54.613 119.467-51.883 150.187-58.027 107.179-10.24 450.56-12.288 462.165-12.288 0 0 286.72 0 477.867 13.653 25.941 2.731 83.968 2.731 136.533 57.344 40.96 40.96 54.613 135.168 54.613 135.168s13.653 109.229 13.653 219.821v116.053c-1.365 109.227-15.019 219.819-15.019 219.819zM544.768 277.292v398.68l365.227-206.848-365.227-191.832z" />
</font>
</defs>
</svg>
